<svg width="205" height="143" viewBox="0 0 205 143" fill="none" xmlns="http://www.w3.org/2000/svg">
<path d="M41.7698 0H5.96711C2.6852 0 0 2.68047 0 5.9566V137.002C0 140.278 2.6852 142.958 5.96711 142.958H41.7698C45.0517 142.958 47.7369 140.278 47.7369 137.002V5.9566C47.7369 2.68047 45.0517 0 41.7698 0ZM35.8026 35.7396H11.9342V23.8264H35.8026V35.7396Z" fill="#40476D"/>
<path d="M101.441 0H65.638C62.3561 0 59.6709 2.68047 59.6709 5.9566V137.002C59.6709 140.278 62.3561 142.958 65.638 142.958H101.441C104.723 142.958 107.408 140.278 107.408 137.002V5.9566C107.408 2.68047 104.723 0 101.441 0ZM95.4735 35.7396H71.6051V23.8264H95.4735V35.7396Z" fill="#40476D"/>
<path d="M142.662 9.20882L110.69 25.2916C109.282 26.0063 108.213 27.2471 107.717 28.7442C107.221 30.2413 107.337 31.8734 108.04 33.2854L161.744 139.67C162.46 141.076 163.703 142.143 165.203 142.638C166.703 143.133 168.338 143.017 169.752 142.315L201.724 126.232C203.132 125.518 204.201 124.277 204.697 122.78C205.193 121.283 205.077 119.65 204.373 118.238L150.669 11.8536C149.954 10.4479 148.71 9.38134 147.211 8.88603C145.711 8.39072 144.076 8.50673 142.662 9.20882Z" fill="#40476D"/>
<path d="M173.046 137.002C173.046 138.582 172.417 140.097 171.298 141.214C170.179 142.331 168.662 142.958 167.079 142.958C165.496 142.958 163.979 142.331 162.86 141.214C161.74 140.097 161.112 138.582 161.112 137.002C161.112 135.422 161.74 133.907 162.86 132.79C163.979 131.673 165.496 131.045 167.079 131.045C168.662 131.045 170.179 131.673 171.298 132.79C172.417 133.907 173.046 135.422 173.046 137.002Z" fill="#40476D"/>
</svg>
