<svg id="books-icon" xmlns="http://www.w3.org/2000/svg" width="205" height="142.958" viewBox="0 0 205 142.958">
  <path id="Path_1" data-name="Path 1" d="M41.77,0H5.967A5.979,5.979,0,0,0,0,5.957V137a5.979,5.979,0,0,0,5.967,5.956h35.8A5.979,5.979,0,0,0,47.737,137V5.957A5.979,5.979,0,0,0,41.77,0ZM35.8,35.74H11.934V23.826H35.8Z" fill="#e5e5e5"/>
  <path id="Path_2" data-name="Path 2" d="M101.441,0h-35.8a5.979,5.979,0,0,0-5.967,5.957V137a5.979,5.979,0,0,0,5.967,5.956h35.8A5.979,5.979,0,0,0,107.408,137V5.957A5.979,5.979,0,0,0,101.441,0ZM95.474,35.74H71.605V23.826H95.474Z" fill="#e5e5e5"/>
  <path id="Path_3" data-name="Path 3" d="M142.662,9.209,110.69,25.292a5.976,5.976,0,0,0-2.65,7.994l53.7,106.385a6,6,0,0,0,8.008,2.645l31.972-16.083a5.974,5.974,0,0,0,2.649-7.994l-53.7-106.384a5.995,5.995,0,0,0-8.007-2.645Z" fill="#e5e5e5"/>
  <path id="Path_4" data-name="Path 4" d="M173.046,137a5.963,5.963,0,1,1-1.748-4.212A5.951,5.951,0,0,1,173.046,137Z" fill="#e5e5e5"/>
</svg>
