<svg xmlns="http://www.w3.org/2000/svg" width="47.8" height="47.8" viewBox="0 0 47.8 47.8">
  <g id="_1814113_add_more_plus_icon" data-name="1814113_add_more_plus_icon" transform="translate(-8.1 -8.1)">
    <g id="Icon-Plus" transform="translate(28 278)">
      <path id="Fill-38" d="M4-222.1A23.9,23.9,0,0,1-19.9-246,23.9,23.9,0,0,1,4-269.9,23.9,23.9,0,0,1,27.9-246,23.9,23.9,0,0,1,4-222.1Zm0-45.2A21.382,21.382,0,0,0-17.3-246,21.382,21.382,0,0,0,4-224.7,21.382,21.382,0,0,0,25.3-246,21.382,21.382,0,0,0,4-267.3Z" fill="#40476d"/>
      <path id="Fill-39" d="M-8.7-247.4H16.7v2.8H-8.7Z" fill="#40476d"/>
      <path id="Fill-40" d="M2.6-258.7H5.4v25.4H2.6Z" fill="#40476d"/>
    </g>
  </g>
</svg>
